<?xml version="1.0" standalone="no"?>
<!DOCTYPE svg PUBLIC "-//W3C//DTD SVG 1.1//EN" "http://www.w3.org/Graphics/SVG/1.1/DTD/svg11.dtd" >
<svg xmlns="http://www.w3.org/2000/svg" xmlns:xlink="http://www.w3.org/1999/xlink" version="1.1">
<metadata></metadata>
<defs>
<font id="lineariconsregular" horiz-adv-x="1126" >
<font-face units-per-em="2048" ascent="1638" descent="-410" />
<missing-glyph horiz-adv-x="819" />
<glyph horiz-adv-x="0" d="M0 0z" />
<glyph horiz-adv-x="0" d="M0 0z" />
<glyph horiz-adv-x="682" />
<glyph horiz-adv-x="0" d="M0 0z" />
<glyph unicode=" " horiz-adv-x="819" d="M0 0z" />
<glyph unicode="!" horiz-adv-x="513" d="M205 358v103q0 21 15 36t36 15t36 -15t15 -36v-103q0 -21 -15 -36t-36 -15t-36 15t-15 36zM205 768v819q0 21 15 36t36 15t36 -15t15 -36v-819q0 -21 -15 -36t-36 -15t-36 15t-15 36z" />
<glyph unicode="&#x22;" horiz-adv-x="512" d="M102 1382v308q0 21 15 36t37 15q21 0 36 -15t15 -36v-308q0 -21 -15 -36t-36 -15q-22 0 -37 15t-15 36zM307 1382v308q0 21 15 36t36 15q22 0 37 -15t15 -36v-308q0 -21 -15 -36t-37 -15q-21 0 -36 15t-15 36z" />
<glyph unicode="#" horiz-adv-x="1434" d="M102 666q0 -22 15 -37t37 -15h195l-41 -247q-4 -21 8.5 -38.5t33.5 -20.5q2 0 4 -0.5t4 -0.5q19 0 33.5 12t17.5 31l44 264h408l-41 -247q-4 -21 8.5 -38.5t33.5 -20.5q2 0 4 -0.5t4 -0.5q19 0 33.5 12t17.5 31l44 264h213q21 0 36 15t15 37q0 21 -15 36t-36 15h-196 l85 512h213q21 0 36 15t15 36t-15 36t-36 15h-196l42 248q3 21 -9 38t-33 21q-21 3 -38.5 -9t-20.5 -33l-44 -265h-409l42 248q3 21 -9 38t-33 21q-21 3 -38.5 -9t-20.5 -33l-44 -265h-213q-21 0 -36 -15t-15 -36t15 -36t36 -15h196l-86 -512h-212q-22 0 -37 -15t-15 -36z M470 717l85 512h409l-86 -512h-408z" />
<glyph unicode="$" d="M102 1280q0 -83 38.5 -147t115.5 -108q31 -19 66.5 -33.5t73 -26.5t77 -22t78.5 -20q86 -21 155 -42.5t117 -50t73.5 -68t25.5 -96.5q0 -27 -10 -72t-48 -86q-44 -49 -119.5 -73.5t-181.5 -24.5q-88 0 -158 14t-119.5 31.5t-76 32.5t-27.5 15q-18 12 -38.5 8t-32.5 -22 q-12 -17 -7.5 -38t21.5 -33q3 -1 30 -17t76.5 -35t120.5 -36t160 -21v-155q0 -22 15 -37t36 -15t36 15t15 37v155q55 3 103 12.5t88.5 26t74.5 39.5t60 52q55 61 69.5 125t14.5 102q0 82 -38.5 146t-114.5 109q-32 18 -67 32.5t-73 26.5t-77 22.5t-78 19.5 q-87 22 -155.5 43.5t-116.5 50t-73.5 67.5t-25.5 97q0 26 10 71t47 87q44 49 119.5 73.5t181.5 24.5q89 0 159 -14.5t119.5 -32t76 -32t26.5 -15.5q18 -12 39 -7.5t32 21.5q12 18 8 39t-22 32q-2 2 -29.5 17.5t-77 34.5t-120 36.5t-160.5 21.5v155q0 21 -15 36t-36 15 t-36 -15t-15 -36v-155q-55 -3 -102.5 -13t-88.5 -26t-74.5 -39t-60.5 -53q-55 -60 -69.5 -124.5t-14.5 -101.5z" />
<glyph unicode="%" horiz-adv-x="1434" d="M102 1331q0 40 4 91.5t27 97.5q30 59 86.5 88.5t138.5 29.5q83 0 139.5 -29.5t85.5 -88.5q24 -46 27.5 -97.5t3.5 -91.5t-3.5 -91.5t-27.5 -97.5q-29 -59 -85.5 -88.5t-139.5 -29.5q-82 0 -138.5 29.5t-86.5 88.5q-23 46 -27 97.5t-4 91.5zM205 351q-3 21 10 38l922 1229 q12 17 33 20t38 -10t20 -34t-9 -38l-922 -1228q-8 -10 -18.5 -15.5t-22.5 -5.5q-8 0 -16 2.5t-15 7.5q-17 13 -20 34zM205 1331q0 -93 23 -149t130 -56q108 0 131 56t23 149t-23 149t-131 56q-107 0 -130 -56t-23 -149zM819 614q0 41 4 92t27 98q30 58 86.5 88t138.5 30 q83 0 139.5 -30t85.5 -88q23 -47 27 -98t4 -92q0 -40 -4 -91t-27 -98q-29 -59 -85.5 -88.5t-139.5 -29.5q-82 0 -138.5 29.5t-86.5 88.5q-23 47 -27 98t-4 91zM922 614q0 -92 23 -148t130 -56t130.5 56t23.5 148q0 93 -23.5 149t-130.5 56t-130 -56t-23 -149z" />
<glyph unicode="&#x26;" d="M102 717q0 -109 24 -185t75 -127q50 -50 126 -74t185 -24q95 0 164.5 18t119.5 56l31 -50q7 -11 18.5 -17.5t24.5 -6.5h103q21 0 36 15t15 36q0 22 -15 37t-36 15h-74l-33 51q23 39 36.5 89.5t17.5 111.5v2v309q0 21 -15 36t-36 15t-36 -15t-15 -36v-306 q-2 -29 -6.5 -54.5t-10.5 -47.5l-494 781q2 48 11.5 82t27.5 55q23 27 64 40t102 13q54 0 93.5 -10.5t62.5 -31.5q20 -19 31.5 -47t15.5 -69q2 -21 18 -35t38 -12q21 2 34.5 18.5t11.5 37.5q-6 64 -28 111t-60 78t-92 46.5t-125 15.5q-85 0 -145 -21.5t-99 -66.5 q-32 -38 -47.5 -91.5t-15.5 -127.5q0 -7 2 -14t6 -13l125 -198q-53 -16 -93.5 -42.5t-69.5 -64.5q-37 -49 -55 -119t-18 -163zM205 717q0 76 13 130.5t39 89.5q22 30 56 49t83 28l345 -546q-35 -29 -92 -43.5t-137 -14.5q-87 0 -145.5 16.5t-93.5 51.5t-51.5 93t-16.5 146z " />
<glyph unicode="'" horiz-adv-x="308" d="M102 1382v308q0 21 15 36t37 15q21 0 36 -15t15 -36v-308q0 -21 -15 -36t-36 -15q-22 0 -37 15t-15 36z" />
<glyph unicode="(" horiz-adv-x="614" d="M102 922q0 103 15 197t38 176.5t51 152t55 124.5q30 59 58.5 105.5t50.5 79t36.5 50t15.5 18.5q14 16 35 18t37 -12t17.5 -35t-11.5 -37q-1 -1 -47.5 -63.5t-100.5 -172.5q-26 -50 -52 -115t-47 -141.5t-34.5 -163t-13.5 -181.5q0 -183 45.5 -336t100.5 -264 t101.5 -173.5t47.5 -63.5q13 -17 11.5 -38t-17.5 -35q-7 -6 -15.5 -9t-17.5 -3q-11 0 -21 4.5t-18 13.5q-1 1 -15.5 19t-36.5 50.5t-50.5 78.5t-58.5 106q-27 54 -55 123.5t-51 152.5t-38 177t-15 197z" />
<glyph unicode=")" horiz-adv-x="614" d="M102.5 47q1.5 -21 17.5 -35q8 -6 16.5 -9t17.5 -3q10 0 20.5 4.5t17.5 13.5q2 1 16 19t36.5 50.5t50.5 78.5t58 106q27 54 55.5 123.5t51.5 152.5t37.5 177t14.5 197t-14.5 197t-37.5 176.5t-51.5 152t-55.5 124.5q-30 59 -58 105.5t-50.5 79t-36.5 50t-16 18.5 q-13 16 -34.5 18t-37.5 -12t-17.5 -35t12.5 -37q0 -1 46.5 -63.5t101.5 -172.5q25 -50 51 -115t47.5 -141.5t35 -163t13.5 -181.5q0 -183 -46 -336t-101 -264t-101 -173.5t-47 -63.5q-14 -17 -12.5 -38z" />
<glyph unicode="*" horiz-adv-x="922" d="M103.5 1392.5q-4.5 -20.5 7.5 -38.5q7 -11 18.5 -17t24.5 -6q7 0 14 2t14 7l228 152v-212q0 -21 15 -36t36 -15t36 15t15 36v212l228 -152q6 -5 13.5 -7t14.5 -2q12 0 23.5 6t19.5 17q11 18 7 38.5t-22 32.5l-243 162l243 162q18 12 22 33t-7 38q-12 18 -33 22t-38 -7 l-228 -152v211q0 22 -15 37t-36 15t-36 -15t-15 -37v-211l-228 152q-18 11 -38.5 7t-32.5 -22q-12 -17 -7.5 -38t21.5 -33l243 -162l-243 -162q-17 -12 -21.5 -32.5z" />
<glyph unicode="+" d="M102 870q0 -21 15 -36t37 -15h358v-358q0 -21 15 -36t36 -15t36 15t15 36v358h359q21 0 36 15t15 36q0 22 -15 37t-36 15h-359v358q0 21 -15 36t-36 15t-36 -15t-15 -36v-358h-358q-22 0 -37 -15t-15 -37z" />
<glyph unicode="," horiz-adv-x="410" d="M102 154q0 -22 15 -37t37 -15q10 0 19.5 4t16.5 11q2 2 20.5 24.5t40 65.5t39 106.5t17.5 147.5q0 21 -15 36t-36 15h-102q-22 0 -37 -15t-15 -36t15 -36t37 -15h48q-10 -109 -46 -163.5t-39 -56.5q-7 -7 -11 -16.5t-4 -19.5z" />
<glyph unicode="-" horiz-adv-x="716" d="M102 768q0 21 15 36t37 15h409q21 0 36 -15t15 -36t-15 -36t-36 -15h-409q-22 0 -37 15t-15 36z" />
<glyph unicode="." horiz-adv-x="308" d="M102 358v103q0 21 15 36t37 15q21 0 36 -15t15 -36v-103q0 -21 -15 -36t-36 -15q-22 0 -37 15t-15 36z" />
<glyph unicode="/" horiz-adv-x="820" d="M105 170l512 1536q7 20 26 29.5t39 2.5t29.5 -25.5t2.5 -39.5l-512 -1536q-5 -16 -18.5 -25.5t-29.5 -9.5q-4 0 -8.5 1t-8.5 2q-20 7 -29.5 26t-2.5 39z" />
<glyph unicode="0" d="M102 973q0 85 6 157t18 132t30.5 109.5t43.5 89.5q28 45 64.5 78t81.5 55.5t99.5 33t117.5 10.5q64 0 118 -10.5t99.5 -33t82 -55.5t64.5 -78q25 -40 43 -89.5t30 -109.5t18 -132t6 -157t-6 -157t-18 -132.5t-30 -109.5t-43 -89q-28 -45 -64.5 -78.5t-82 -55.5t-99.5 -33 t-118 -11q-63 0 -117.5 11t-99.5 33t-81.5 55.5t-64.5 78.5q-25 40 -43.5 89t-30.5 109.5t-18 132.5t-6 157zM205 973q0 -77 5 -141.5t15 -118.5t25.5 -97.5t36.5 -76.5q41 -66 108.5 -97.5t167.5 -31.5t167.5 31.5t109.5 97.5q20 33 35.5 76.5t26 97.5t15.5 118.5t5 141.5 q0 76 -5 141t-15.5 119t-26 97t-35.5 76q-42 67 -109.5 98.5t-167.5 31.5t-167.5 -31.5t-108.5 -98.5q-21 -33 -36.5 -76t-25.5 -97t-15 -119t-5 -141z" />
<glyph unicode="1" horiz-adv-x="512" d="M102 1382.5q0 21.5 15 36.5l205 204q11 11 26.5 14t29.5 -2q14 -6 23 -19t9 -29v-1229q0 -21 -15 -36t-37 -15q-21 0 -36 15t-15 36v1106l-117 -118q-15 -15 -36.5 -15t-36.5 15t-15 36.5z" />
<glyph unicode="2" d="M102 358q0 70 10 130.5t30 112.5t49.5 96t70.5 80q34 31 73 55t80 42.5t83.5 34t85.5 29.5q69 23 132.5 48t109.5 63q31 26 63.5 77t32.5 154q0 69 -17.5 115.5t-53.5 74.5q-41 34 -112.5 50t-175.5 16t-175 -16t-113 -50q-36 -28 -53 -74.5t-17 -115.5q0 -21 -15 -36 t-36 -15q-22 0 -37 15t-15 36q0 93 27.5 160.5t84 111.5t143.5 65t206 21q120 0 207 -21t143.5 -65t83.5 -111.5t27 -160.5q0 -51 -8 -95.5t-25 -83t-42 -71t-58 -60.5q-58 -47 -130 -75.5t-144 -53.5q-39 -13 -78 -27t-75.5 -30.5t-70.5 -36.5t-63 -46 q-57 -51 -87.5 -122.5t-36.5 -168.5h767q21 0 36 -15t15 -37q0 -21 -15 -36t-36 -15h-819q-22 0 -37 15t-15 36z" />
<glyph unicode="3" d="M115 551q15 -63 51 -110t92 -77q55 -28 130.5 -42.5t174.5 -14.5q120 0 207 21t143.5 65t83.5 112t27 161q0 57 -10 104t-31 85.5t-52.5 67.5t-74.5 50q43 20 74.5 49.5t52.5 67.5t31 85.5t10 104.5q0 93 -27 160.5t-83.5 111.5t-143.5 65t-207 21q-57 0 -106.5 -4.5 t-91 -14t-76 -24t-62.5 -33.5q-43 -30 -71 -72t-41 -95q-5 -21 6 -39t31 -23q21 -5 39 6t23 31q9 36 26.5 62.5t44.5 45.5q42 29 111 43.5t167 14.5q104 0 175.5 -16t112.5 -50q23 -18 47 -59t24 -131t-24 -131t-47 -59q-41 -34 -112.5 -50t-175.5 -16h-102q-21 0 -36 -15 t-15 -36t15 -36t36 -15h102q104 0 175.5 -16.5t112.5 -49.5q23 -18 47 -59t24 -131q0 -91 -24 -132t-47 -59q-41 -33 -112.5 -49t-175.5 -16q-102 0 -166 14t-102.5 37.5t-55.5 53.5t-25 60q-5 21 -23 32t-39 6q-20 -5 -31 -23t-6 -39z" />
<glyph unicode="4" horiz-adv-x="1229" d="M102.5 670.5q1.5 14.5 10.5 26.5l717 922q10 13 25.5 17.5t31.5 -0.5q16 -6 25.5 -19t9.5 -30v-870h153q21 0 36 -15t15 -36q0 -22 -15 -37t-36 -15h-153v-256q0 -21 -15 -36t-37 -15q-21 0 -36 15t-15 36v256h-665q-15 0 -27.5 8t-18.5 21q-7 13 -5.5 27.5zM258 717h561 v721z" />
<glyph unicode="5" d="M126 544q-7 21 3 39.5t30 25.5q20 6 39 -3.5t25 -29.5q14 -43 38 -72.5t62 -49.5q42 -22 101.5 -33t138.5 -11q103 0 173.5 18.5t111.5 56.5q38 35 56 91.5t18 140.5q0 83 -18 139.5t-56 91.5q-41 38 -111.5 57t-173.5 19h-307q-11 0 -21 4.5t-17 12.5t-10.5 18t-2.5 21 l51 512q2 20 16.5 33t34.5 13h666q21 0 36 -15t15 -36t-15 -36t-36 -15h-619l-41 -410h250q120 0 207 -24t143.5 -74t83.5 -127.5t27 -183.5t-27 -183.5t-83.5 -127.5t-143.5 -74.5t-207 -24.5q-92 0 -164.5 14.5t-127 43.5t-90.5 74t-55 105z" />
<glyph unicode="6" d="M102 717q0 -106 27.5 -183.5t84 -127.5t143.5 -74.5t206 -24.5q120 0 207 24.5t143.5 74.5t83.5 127.5t27 183.5t-27 183.5t-83.5 127.5t-143.5 74t-207 24q-62 0 -115 -6.5t-98 -19.5t-81 -33t-64 -47v209q0 83 18 139.5t55 91.5q41 38 111.5 57t173.5 19q80 0 140 -11 t102 -34q37 -20 61.5 -50.5t37.5 -73.5q6 -20 25 -30t39 -3q20 6 30 24.5t4 39.5q-19 61 -55 106.5t-90.5 75t-127.5 44t-166 14.5q-119 0 -206 -24t-143.5 -74t-84 -127.5t-27.5 -183.5v-512zM205 717q0 83 18 139.5t55 91.5q41 38 111.5 57t173.5 19t173.5 -19t111.5 -57 q38 -35 56 -91.5t18 -139.5q0 -84 -18 -140.5t-56 -91.5q-41 -38 -111.5 -56.5t-173.5 -18.5t-173.5 18.5t-111.5 56.5q-37 35 -55 91.5t-18 140.5z" />
<glyph unicode="7" d="M102 1587q0 21 15 36t37 15h819q13 0 24.5 -6.5t18.5 -17.5t8 -24.5t-5 -25.5l-615 -1228q-7 -14 -19.5 -21.5t-26.5 -7.5q-5 0 -11 1.5t-11 4.5q-19 9 -26 29t3 39l577 1155h-736q-22 0 -37 15t-15 36z" />
<glyph unicode="8" d="M102 666q0 -93 27.5 -161t84 -112t143.5 -65t206 -21q120 0 207 21t143.5 65t83.5 112t27 161q0 57 -10 104t-31 85.5t-52.5 67.5t-74.5 50q43 20 74.5 49.5t52.5 67.5t31 85.5t10 104.5q0 93 -27 160.5t-83.5 111.5t-143.5 65t-207 21q-119 0 -206 -21t-143.5 -65 t-84 -111.5t-27.5 -160.5q0 -57 10.5 -104.5t31 -85.5t52.5 -67.5t75 -49.5q-43 -21 -75 -50t-52.5 -67.5t-31 -85.5t-10.5 -104zM205 666q0 90 24 131t46 59q42 33 113 49.5t175 16.5t175.5 -16.5t112.5 -49.5q23 -18 47 -59t24 -131q0 -91 -24 -132t-47 -59 q-41 -33 -112.5 -49t-175.5 -16t-175 16t-113 49q-22 18 -46 59t-24 132zM205 1280q0 90 24 131t46 59q42 34 113 50t175 16t175.5 -16t112.5 -50q23 -18 47 -59t24 -131t-24 -131t-47 -59q-41 -34 -112.5 -50t-175.5 -16t-175 16t-113 50q-22 18 -46 59t-24 131z" />
<glyph unicode="9" d="M102 1229q0 -106 27.5 -183.5t84 -127.5t143.5 -74.5t206 -24.5q62 0 115.5 6.5t98 19.5t80.5 33.5t65 47.5v-209q0 -84 -18 -140.5t-56 -91.5q-41 -38 -111.5 -56.5t-173.5 -18.5q-80 0 -139.5 11t-102.5 34q-37 20 -61 50t-38 73q-6 21 -25 30.5t-39 3.5t-30 -25 t-4 -39q20 -62 56 -107t90 -75t127 -44.5t166 -14.5q120 0 207 24.5t143.5 74.5t83.5 127.5t27 183.5v512q0 106 -27 183.5t-83.5 127.5t-143.5 74t-207 24q-119 0 -206 -24t-143.5 -74t-84 -127.5t-27.5 -183.5zM205 1229q0 83 18 139.5t55 91.5q41 38 111.5 57t173.5 19 t173.5 -19t111.5 -57q38 -35 56 -91.5t18 -139.5q0 -84 -18 -140.5t-56 -91.5q-41 -38 -111.5 -56.5t-173.5 -18.5t-173.5 18.5t-111.5 56.5q-37 35 -55 91.5t-18 140.5z" />
<glyph unicode=":" horiz-adv-x="410" d="M102 358v103q0 21 15 36t37 15q21 0 36 -15t15 -36v-103q0 -21 -15 -36t-36 -15q-22 0 -37 15t-15 36zM102 1075v103q0 21 15 36t37 15q21 0 36 -15t15 -36v-103q0 -21 -15 -36t-36 -15q-22 0 -37 15t-15 36z" />
<glyph unicode=";" horiz-adv-x="410" d="M102 154q0 -22 15 -37t37 -15q10 0 19.5 4t16.5 11q2 2 20.5 24.5t40 65.5t39 106.5t17.5 147.5q0 21 -15 36t-36 15h-102q-22 0 -37 -15t-15 -36t15 -36t37 -15h48q-10 -109 -46 -163.5t-39 -56.5q-7 -7 -11 -16.5t-4 -19.5zM205 1075v103q0 21 15 36t36 15t36 -15 t15 -36v-103q0 -21 -15 -36t-36 -15t-36 15t-15 36z" />
<glyph unicode="&#x3c;" d="M102 870q0 15 8 27.5t21 18.5l819 410q19 9 39 2.5t30 -25.5q9 -19 2.5 -39t-25.5 -30l-728 -364l728 -363q19 -10 25.5 -30t-2.5 -39q-7 -14 -19.5 -21t-26.5 -7q-6 0 -12 1t-11 4l-819 410q-13 6 -21 18.5t-8 26.5z" />
<glyph unicode="=" d="M102 666q0 21 15 36t37 15h819q21 0 36 -15t15 -36q0 -22 -15 -37t-36 -15h-819q-22 0 -37 15t-15 37zM102 1075q0 21 15 36t37 15h819q21 0 36 -15t15 -36t-15 -36t-36 -15h-819q-22 0 -37 15t-15 36z" />
<glyph unicode="&#x3e;" d="M105 477q7 20 26 30l727 363l-727 364q-19 10 -26 30t3 39q9 19 29.5 25.5t38.5 -2.5l820 -410q13 -6 20.5 -18.5t7.5 -27.5q0 -14 -7.5 -26.5t-20.5 -18.5l-820 -410q-5 -3 -11 -4t-11 -1q-14 0 -26.5 7t-19.5 21q-10 19 -3 39z" />
<glyph unicode="?" horiz-adv-x="1024" d="M104 1283q6 94 33.5 161t78.5 110q50 43 122.5 63.5t173.5 20.5q109 0 185 -24t126 -74q51 -50 75 -126t24 -185t-24 -185t-75 -127q-50 -50 -126 -74t-185 -24v-153q0 -22 -15 -37t-36 -15t-36 15t-15 37v204q0 22 15 37t36 15h51q87 0 145.5 16.5t93.5 51.5t51.5 93 t16.5 146q0 87 -16.5 145.5t-51.5 93.5t-93.5 51.5t-145.5 16.5q-81 0 -137.5 -14.5t-91.5 -44.5t-53.5 -79t-23.5 -121q-1 -21 -17 -35t-37 -13t-35 17t-13 37zM410 358v103q0 21 15 36t36 15t36 -15t15 -36v-103q0 -21 -15 -36t-36 -15t-36 15t-15 36z" />
<glyph unicode="@" horiz-adv-x="1740" d="M102 768q0 -91 13 -172.5t38 -152.5t62.5 -131.5t87.5 -110.5t110.5 -87.5t131.5 -63t152.5 -38t172.5 -12.5q87 0 164.5 11.5t146 34t127.5 56.5t109 79q16 14 17 35t-14 37q-14 16 -35 17t-37 -14q-42 -38 -93.5 -67t-111 -48t-128 -29t-145.5 -10q-80 0 -151.5 11 t-133.5 32.5t-114.5 53.5t-95.5 74q-42 42 -74 94.5t-53.5 114.5t-32 133.5t-10.5 152.5t10.5 152.5t32 133.5t53.5 114.5t74 94.5q43 42 95.5 74t114.5 53.5t133.5 32.5t151.5 11q81 0 152.5 -11t133.5 -32.5t114.5 -53.5t94.5 -74q43 -42 75 -94.5t53.5 -114.5t32 -133.5 t10.5 -152.5v-102q0 -64 -45 -109t-109 -45q-63 0 -108 45t-45 109v409q0 21 -15 36t-36 15q-22 0 -37 -15t-15 -36v-43q-47 47 -112 70.5t-144 23.5q-83 0 -151.5 -27t-116.5 -79q-44 -48 -67 -112.5t-23 -139.5t23 -139.5t67 -112.5q48 -52 116.5 -79t151.5 -27 q84 0 152 27t116 79q6 6 11 12t10 13q33 -59 92.5 -95t130.5 -36q53 0 100 20t81.5 54.5t54.5 81.5t20 100v102q0 91 -12.5 172.5t-37.5 152.5t-62.5 131.5t-87.5 110.5t-110.5 87.5t-132 63t-152.5 38t-173 12.5q-91 0 -172.5 -12.5t-152.5 -38t-131.5 -63t-110.5 -87.5 t-87.5 -110.5t-62.5 -131.5t-38 -152.5t-13 -172.5zM614 768q0 56 16.5 102.5t47.5 80.5q33 36 82 54.5t110 18.5q62 0 111 -18.5t82 -54.5q31 -34 47 -80.5t16 -102.5t-16 -102.5t-47 -80.5q-33 -36 -82 -54.5t-111 -18.5q-61 0 -110 18.5t-82 54.5q-31 34 -47.5 80.5 t-16.5 102.5z" />
<glyph unicode="A" horiz-adv-x="1332" d="M106 339q8 -20 28 -28q19 -8 39 0t28 28l157 378h615l157 -378q6 -15 19.5 -23.5t28.5 -8.5q5 0 9.5 1t9.5 3q20 8 28 28t0 39l-512 1229q-6 14 -19 22.5t-28 8.5q-16 0 -29 -8.5t-19 -22.5l-512 -1229q-8 -19 0 -39zM401 819l265 635l264 -635h-529z" />
<glyph unicode="B" horiz-adv-x="1228" d="M102 358v1229q0 21 15 36t37 15h409q120 0 207 -21t143.5 -65t83.5 -111.5t27 -160.5q0 -99 -31 -169.5t-96 -114.5q25 -7 47.5 -16t41.5 -21q35 -20 61.5 -48.5t44 -65t26 -81.5t8.5 -98q0 -54 -8.5 -99t-26 -81.5t-44 -65t-61.5 -48.5q-29 -17 -65 -29.5t-81.5 -20 t-101 -11.5t-124.5 -4h-460q-22 0 -37 15t-15 36zM205 410h409q123 0 199 12t121 38q32 19 61 61.5t29 144.5q0 101 -29 144t-61 61q-45 27 -121 39t-199 12v1q-12 -1 -25 -1h-26h-358v-512zM205 1024h358q104 0 175.5 16t112.5 50q36 28 53.5 74.5t17.5 115.5t-17.5 115.5 t-53.5 74.5q-41 34 -112.5 50t-175.5 16h-358v-512z" />
<glyph unicode="C" horiz-adv-x="1332" d="M102 973q0 82 11 154t32 134t52.5 114.5t73.5 94.5t94 73.5t114.5 52.5t134.5 31.5t154 10.5q69 0 131 -7.5t117 -22.5t103 -37t89 -52q17 -13 20 -34t-9 -38q-13 -17 -34 -20t-38 9q-34 25 -74.5 43.5t-88 31t-102 19t-114.5 6.5q-71 0 -133.5 -8.5t-115.5 -26 t-97 -43.5t-79 -61q-34 -34 -60 -78t-43.5 -97t-26 -115.5t-8.5 -133.5t8.5 -133.5t26 -115.5t43.5 -97t60 -79q35 -34 79 -60t97 -43.5t115.5 -26t133.5 -8.5q60 0 114.5 6t102 18.5t88 31.5t74.5 43q17 13 38 10t34 -21q12 -17 9 -38t-20 -33q-41 -30 -89 -52.5 t-103 -37.5t-117 -22.5t-131 -7.5q-82 0 -154 10.5t-134.5 32t-114.5 53t-94 73.5t-73.5 94t-52.5 114.5t-32 134.5t-11 154z" />
<glyph unicode="D" horiz-adv-x="1332" d="M102 358v1229q0 21 15 36t37 15h409q82 0 154 -10.5t134.5 -31.5t114.5 -52.5t94 -73.5t73.5 -94.5t53 -114.5t32 -134t10.5 -154t-10.5 -154t-32 -134.5t-53 -114.5t-73.5 -94t-94 -73.5t-114.5 -53t-134.5 -32t-154 -10.5h-409q-22 0 -37 15t-15 36zM205 410h358 q71 0 133.5 8.5t115.5 26t97 43.5t79 60q34 35 60 79t43.5 97t26 115.5t8.5 133.5t-8.5 133.5t-26 115.5t-43.5 97t-60 78q-35 35 -79 61t-97 43.5t-115.5 26t-133.5 8.5h-358v-1126z" />
<glyph unicode="E" horiz-adv-x="1228" d="M102 358q0 -21 15 -36t37 -15h921q21 0 36 15t15 36q0 22 -15 37t-36 15h-870v512h768q21 0 36 15t15 36t-15 36t-36 15h-768v512h870q21 0 36 15t15 36t-15 36t-36 15h-921q-22 0 -37 -15t-15 -36v-1229z" />
<glyph unicode="F" horiz-adv-x="1228" d="M102 358q0 -21 15 -36t37 -15q21 0 36 15t15 36v564h768q21 0 36 15t15 36t-15 36t-36 15h-768v512h870q21 0 36 15t15 36t-15 36t-36 15h-921q-22 0 -37 -15t-15 -36v-1229z" />
<glyph unicode="G" horiz-adv-x="1332" d="M102 973q0 82 11 154t32 134t52.5 114.5t73.5 94.5t94 73.5t114.5 52.5t134.5 31.5t154 10.5q69 0 131 -7.5t117 -22.5t103 -37t89 -52q17 -13 20 -34t-9 -38q-13 -17 -34 -20t-38 9q-34 25 -74.5 43.5t-88 31t-102 19t-114.5 6.5q-71 0 -133.5 -8.5t-115.5 -26 t-97 -43.5t-79 -61q-34 -34 -60 -78t-43.5 -97t-26 -115.5t-8.5 -133.5t8.5 -133.5t26 -115.5t43.5 -97t60 -79q35 -34 79 -60t97 -43.5t115.5 -26t133.5 -8.5q56 0 106.5 5t95.5 16t84 27t72 37v427h-153q-21 0 -36 15t-15 36t15 36t36 15h205q21 0 36 -15t15 -36v-505 q0 -12 -5.5 -23t-15.5 -18q-41 -30 -89 -52.5t-103 -37.5t-117 -22.5t-131 -7.5q-82 0 -154 10.5t-134.5 32t-114.5 53t-94 73.5t-73.5 94t-52.5 114.5t-32 134.5t-11 154z" />
<glyph unicode="H" horiz-adv-x="1228" d="M102 358q0 -21 15 -36t37 -15q21 0 36 15t15 36v564h819v-564q0 -21 15 -36t36 -15t36 15t15 36v1229q0 21 -15 36t-36 15t-36 -15t-15 -36v-563h-819v563q0 21 -15 36t-36 15q-22 0 -37 -15t-15 -36v-1229z" />
<glyph unicode="I" horiz-adv-x="308" d="M102 358v1229q0 21 15 36t37 15q21 0 36 -15t15 -36v-1229q0 -21 -15 -36t-36 -15q-22 0 -37 15t-15 36z" />
<glyph unicode="J" d="M117.5 460.5q-0.5 21.5 14.5 36.5t36.5 15t36.5 -15q45 -45 120 -66t187 -21q86 0 145 11.5t97.5 30t61 42t37.5 45.5q21 35 34.5 79.5t21 99t10.5 118.5t3 137v614q0 21 15 36t36 15t36 -15t15 -36v-614q0 -82 -3.5 -152.5t-12.5 -131t-25.5 -111.5t-43.5 -93 q-28 -46 -68 -79t-93 -55t-119 -33t-147 -11q-67 0 -123.5 7t-103 21.5t-84.5 36.5t-68 52q-15 15 -15.5 36.5z" />
<glyph unicode="K" d="M102 358q0 -21 15 -36t37 -15q21 0 36 15t15 36v549l736 -589q7 -5 15 -8t17 -3q11 0 21.5 5t18.5 14q13 17 10.5 38t-18.5 34l-718 575l718 574q16 13 18.5 34.5t-10.5 37.5q-13 17 -34.5 19t-37.5 -11l-736 -589v549q0 21 -15 36t-36 15q-22 0 -37 -15t-15 -36v-1229z " />
<glyph unicode="L" horiz-adv-x="1228" d="M102 358v1229q0 21 15 36t37 15q21 0 36 -15t15 -36v-1177h870q21 0 36 -15t15 -37q0 -21 -15 -36t-36 -15h-921q-22 0 -37 15t-15 36z" />
<glyph unicode="M" horiz-adv-x="1740" d="M103 367l205 1229q3 17 15.5 28.5t29.5 13.5t31.5 -6.5t21.5 -24.5l464 -1115l465 1115q7 16 21.5 24.5t31.5 6.5t29.5 -13.5t15.5 -28.5l205 -1229q3 -21 -9 -38.5t-33 -20.5q-3 0 -5 -0.5t-4 -0.5q-18 0 -32.5 12t-17.5 31l-176 1053l-443 -1064q-6 -15 -19 -23.5 t-29 -8.5q-15 0 -28 8.5t-19 23.5l-443 1064l-176 -1053q-3 -21 -20.5 -33.5t-38.5 -8.5q-21 3 -33 20.5t-9 38.5z" />
<glyph unicode="N" horiz-adv-x="1228" d="M102 358v1229q0 17 10 30.5t25 18.5q16 5 32 0t26 -18l829 -1106v1075q0 21 15 36t36 15t36 -15t15 -36v-1229q0 -16 -9.5 -29.5t-25.5 -18.5q-4 -2 -8 -2.5t-8 -0.5q-12 0 -22.5 5.5t-18.5 15.5l-829 1106v-1076q0 -21 -15 -36t-36 -15q-22 0 -37 15t-15 36z" />
<glyph unicode="O" horiz-adv-x="1434" d="M102 973q0 80 10.5 151.5t30.5 134t50 115t70 95.5q40 42 88.5 73.5t105 53t122 32t138.5 10.5t138 -10.5t122 -32t105.5 -53t87.5 -73.5q40 -43 70.5 -95.5t50.5 -115t30 -134t10 -151.5q0 -81 -10 -152.5t-30 -133.5t-50.5 -114.5t-70.5 -95.5q-39 -42 -87.5 -74 t-105.5 -53t-122 -32t-138 -11t-138.5 11t-122 32t-105 53t-88.5 74q-40 43 -70 95.5t-50 114.5t-30.5 133.5t-10.5 152.5zM205 973q0 -71 8.5 -133t25 -115.5t41.5 -98t58 -79.5q32 -34 72 -60t87.5 -43t102.5 -25.5t117 -8.5t117 8.5t102.5 25.5t87 43t71.5 60 q34 35 59 79.5t41.5 98t25 115.5t8.5 133q0 70 -8.5 132.5t-25 115.5t-41.5 97.5t-59 80.5q-32 34 -71.5 59.5t-87 43t-102.5 26t-117 8.5t-117 -8.5t-102.5 -26t-87.5 -43t-72 -59.5q-33 -36 -58 -80.5t-41.5 -97.5t-25 -115.5t-8.5 -132.5z" />
<glyph unicode="P" d="M102 358v1229q0 21 15 36t37 15h409q120 0 207 -21t143.5 -65t83.5 -111.5t27 -160.5t-27 -160.5t-83.5 -111.5t-143.5 -65t-207 -21h-358v-564q0 -21 -15 -36t-36 -15q-22 0 -37 15t-15 36zM205 1024h358q104 0 175.5 16t112.5 50q36 28 53.5 74.5t17.5 115.5 t-17.5 115.5t-53.5 74.5q-41 34 -112.5 50t-175.5 16h-358v-512z" />
<glyph unicode="Q" horiz-adv-x="1434" d="M102 973q0 -81 10.5 -152.5t30.5 -133.5t50 -114.5t70 -95.5q37 -39 80.5 -69t94 -51t108.5 -33t123 -16q5 -45 21 -85t42 -74q27 -33 63 -60t81 -46q73 -32 134.5 -37.5t64.5 -5.5q21 0 36 15t15 36t-15 36t-36 15l-50 4.5t-109 30.5q-62 26 -98 69t-46 103q63 4 120 16 t106.5 33t92.5 51t79 68q40 43 70.5 95.5t50.5 114.5t30 133.5t10 152.5q0 80 -10 151.5t-30 134t-50.5 115t-70.5 95.5q-39 42 -87.5 73.5t-105.5 53t-122 32t-138 10.5t-138.5 -10.5t-122 -32t-105 -53t-88.5 -73.5q-40 -43 -70 -95.5t-50 -115t-30.5 -134t-10.5 -151.5z M205 973q0 70 8.5 132.5t25 115.5t41.5 97.5t58 80.5q32 34 72 59.5t87.5 43t102.5 26t117 8.5t117 -8.5t102.5 -26t87 -43t71.5 -59.5q34 -36 59 -80.5t41.5 -97.5t25 -115.5t8.5 -132.5q0 -71 -8.5 -133t-25 -115.5t-41.5 -98t-59 -79.5q-32 -34 -71.5 -60t-87 -43 t-102.5 -25.5t-117 -8.5t-117 8.5t-102.5 25.5t-87.5 43t-72 60q-33 35 -58 79.5t-41.5 98t-25 115.5t-8.5 133z" />
<glyph unicode="R" d="M102 358q0 -21 15 -36t37 -15q21 0 36 15t15 36v564h331l394 -592q8 -11 19 -17t24 -6q7 0 14.5 2t13.5 7q18 12 22 32.5t-8 38.5l-359 538q95 8 164.5 33t114.5 69t67 107t22 146q0 93 -27 160.5t-83.5 111.5t-143.5 65t-207 21h-409q-22 0 -37 -15t-15 -36v-1229z M205 1024v512h358q104 0 175.5 -16t112.5 -50q36 -28 53.5 -74.5t17.5 -115.5t-17.5 -115.5t-53.5 -74.5q-41 -34 -112.5 -50t-175.5 -16h-358z" />
<glyph unicode="S" d="M102 1280q0 37 14.5 101.5t69.5 124.5q30 33 68.5 58t85.5 41.5t103 24.5t120 8q101 0 181 -16.5t136.5 -37t87.5 -38t33 -19.5q18 -11 22 -32t-8 -39q-11 -17 -32 -21.5t-39 7.5q0 1 -26.5 15.5t-76 32t-119.5 32t-159 14.5q-106 0 -181.5 -24.5t-119.5 -73.5 q-37 -42 -47 -87t-10 -71q0 -58 25.5 -97t73.5 -67.5t116.5 -50t155.5 -43.5q39 -9 78 -19.5t77 -22.5t73 -26.5t67 -32.5q76 -45 114.5 -109t38.5 -146q0 -38 -14.5 -102t-69.5 -125q-29 -33 -67.5 -57.5t-86 -41t-103.5 -25t-120 -8.5q-100 0 -180.5 17t-136.5 37t-87 38 t-34 19q-17 12 -21.5 33t7.5 38q12 18 32.5 22t38.5 -8q1 0 27.5 -15t76 -32.5t119.5 -31.5t158 -14q106 0 181.5 24.5t119.5 73.5q38 41 48 86t10 72q0 57 -25.5 96.5t-73.5 68t-117 50t-155 42.5q-39 10 -78.5 20t-77 22t-73 26.5t-66.5 33.5q-77 44 -115.5 108t-38.5 147 z" />
<glyph unicode="T" d="M102 1587q0 -21 15 -36t37 -15h358v-1178q0 -21 15 -36t36 -15t36 15t15 36v1178h359q21 0 36 15t15 36t-15 36t-36 15h-819q-22 0 -37 -15t-15 -36z" />
<glyph unicode="U" horiz-adv-x="1228" d="M102 973v614q0 21 15 36t37 15q21 0 36 -15t15 -36v-614q0 -73 2.5 -137t10 -118.5t21 -99t35.5 -79.5q27 -43 66.5 -68.5t85 -39t94.5 -17.5t94 -4q87 0 145.5 11.5t97.5 30t61.5 42t36.5 45.5q21 35 34.5 79.5t21.5 99t10.5 118.5t2.5 137v614q0 21 15 36t36 15t36 -15 t15 -36v-614q0 -82 -3 -152.5t-12.5 -131t-26 -111.5t-42.5 -93q-29 -46 -69 -79t-92.5 -55t-119 -33t-147.5 -11t-147 11t-119 33t-93 55t-68 79q-26 42 -42.5 93t-26 111.5t-13 131t-3.5 152.5z" />
<glyph unicode="V" horiz-adv-x="1332" d="M106 1568q-8 19 0 38.5t28 27.5q19 9 39 0.5t28 -27.5l465 -1115l464 1115q8 19 28 27.5t39 -0.5q20 -8 28 -27.5t0 -38.5l-512 -1229q-6 -15 -19 -23.5t-28 -8.5q-16 0 -29 8.5t-19 23.5z" />
<glyph unicode="W" horiz-adv-x="1740" d="M104 1575q-5 20 6 38.5t31 23.5q21 5 39 -6t23 -31l265 -1059l354 1062q5 16 18.5 25.5t29.5 9.5q17 0 30.5 -9.5t18.5 -25.5l354 -1062l265 1059q5 20 23 31t39 6q20 -5 31 -23.5t6 -38.5l-307 -1229q-4 -17 -17.5 -27.5t-30.5 -11.5h-2v0q-16 0 -29.5 9.5t-19.5 25.5 l-361 1083l-361 -1083q-5 -16 -19 -25.5t-31 -9.5q-17 1 -30.5 11.5t-17.5 27.5z" />
<glyph unicode="X" horiz-adv-x="1228" d="M103 351q3 -21 20 -34q7 -5 15 -7.5t16 -2.5q11 0 22 5.5t19 15.5l419 559l420 -559q8 -10 19 -15.5t22 -5.5q8 0 16 2.5t15 7.5q17 13 20 34t-10 38l-438 584l438 583q13 17 10 38t-20 34t-38 10t-34 -20l-420 -560l-419 560q-13 17 -34 20t-38 -10t-20 -34t10 -38 l437 -583l-437 -584q-13 -17 -10 -38z" />
<glyph unicode="Y" d="M104.5 1600.5q-5.5 -20.5 4.5 -38.5l403 -705v-499q0 -21 15 -36t36 -15t36 15t15 36v499l403 705q11 18 5.5 38.5t-24.5 31.5q-18 10 -38.5 4.5t-31.5 -23.5l-365 -639l-365 639q-10 18 -30.5 23.5t-39.5 -4.5q-18 -11 -23.5 -31.5z" />
<glyph unicode="Z" horiz-adv-x="1228" d="M102 1587q0 21 15 36t37 15h921q15 0 27 -7.5t19 -20.5t5.5 -27.5t-10.5 -26.5l-860 -1146h819q21 0 36 -15t15 -37q0 -21 -15 -36t-36 -15h-921q-15 0 -27.5 7.5t-18.5 21.5q-7 13 -5.5 27t10.5 26l860 1147h-819q-22 0 -37 15t-15 36z" />
<glyph unicode="[" horiz-adv-x="614" d="M102 51v1741q0 21 15 36t37 15h307q21 0 36 -15t15 -36t-15 -36t-36 -15h-256v-1639h256q21 0 36 -15t15 -36t-15 -36t-36 -15h-307q-22 0 -37 15t-15 36z" />
<glyph unicode="\" horiz-adv-x="820" d="M105 1673l512 -1536q5 -16 19 -25.5t30 -9.5q4 0 8 1l8 2q20 7 29.5 26t2.5 39l-512 1536q-7 20 -25.5 29.5t-39.5 2.5q-20 -7 -29.5 -25.5t-2.5 -39.5z" />
<glyph unicode="]" horiz-adv-x="614" d="M102 51q0 -21 15 -36t37 -15h307q21 0 36 15t15 36v1741q0 21 -15 36t-36 15h-307q-22 0 -37 -15t-15 -36t15 -36t37 -15h256v-1639h-256q-22 0 -37 -15t-15 -36z" />
<glyph unicode="^" horiz-adv-x="922" d="M104 1062.5q-5 20.5 6 39.5l307 512q7 11 18.5 17.5t25.5 6.5q13 0 25 -6.5t19 -17.5l307 -512q11 -19 6 -39.5t-24 -31.5q-6 -3 -12.5 -5t-13.5 -2q-13 0 -25 6.5t-19 18.5l-263 439l-263 -439q-11 -18 -32 -23.5t-39 5.5t-23 31.5z" />
<glyph unicode="_" horiz-adv-x="1024" d="M0 -51q0 21 15 36t36 15h922q21 0 36 -15t15 -36t-15 -36t-36 -15h-922q-21 0 -36 15t-15 36z" />
<glyph unicode="`" horiz-adv-x="614" d="M103.5 1802q4.5 21 21.5 33q18 11 38.5 7t32.5 -22l205 -307q12 -17 7.5 -38t-21.5 -33q-7 -4 -14 -6t-15 -2q-12 0 -23.5 5.5t-18.5 16.5l-205 308q-12 17 -7.5 38z" />
<glyph unicode="a" horiz-adv-x="1024" d="M102 563q0 -69 33.5 -121.5t97.5 -84.5q51 -25 120 -37.5t159 -12.5q120 0 193 8.5t117 27.5q5 -16 18 -26t30 -10q22 0 37 15t15 36v461q0 61 -7 112t-21 92t-35.5 73.5t-50.5 56.5q-34 28 -97.5 52t-198.5 24q-92 0 -160.5 -11.5t-117.5 -34.5q-19 -10 -26 -30t2 -39 t29 -26t39 2q38 18 96 27t138 9q88 0 142.5 -12t87.5 -40q40 -32 58.5 -94.5t18.5 -160.5v-36q-44 19 -117 27.5t-190 8.5q-90 0 -159 -12.5t-120 -37.5q-64 -32 -97.5 -84.5t-33.5 -121.5zM205 563q0 40 18 67.5t56 46.5q39 20 97.5 30t135.5 10q40 0 82.5 -1t80.5 -5 t69 -11t48 -19q18 -12 22.5 -37t4.5 -81t-3.5 -81.5t-19.5 -36.5q-17 -12 -48 -19t-69.5 -10.5t-82 -4.5t-84.5 -1q-77 0 -135.5 9.5t-97.5 29.5q-38 19 -56 47t-18 67z" />
<glyph unicode="b" d="M102 358q0 -21 15 -36t37 -15q21 0 36 15t15 36v75q5 -6 11 -11.5t12 -11.5q29 -26 63.5 -45.5t76.5 -32t90.5 -19t104.5 -6.5t105 6.5t90.5 19t76.5 32t63 45.5q32 29 55.5 65.5t39.5 81t23.5 97t7.5 114.5t-7.5 114.5t-23.5 97t-39.5 81t-55.5 65.5q-28 26 -63 45.5 t-76.5 32t-90.5 19t-105 6.5t-104.5 -6.5t-90.5 -19t-76.5 -32t-63.5 -45.5q-6 -6 -12 -11.5t-11 -11.5v484q0 21 -15 36t-36 15q-22 0 -37 -15t-15 -36v-1229zM205 768q0 100 22.5 170t69.5 112q42 39 108 57.5t158 18.5t158 -18.5t109 -57.5q46 -42 69 -112t23 -170 t-23 -170t-69 -112q-43 -39 -109 -57.5t-158 -18.5t-158 18.5t-108 57.5q-47 42 -69.5 112t-22.5 170z" />
<glyph unicode="c" horiz-adv-x="1024" d="M102 768q0 62 8 114.5t23.5 97t39 81t55.5 65.5q29 26 63.5 45.5t76.5 32t90.5 19t104.5 6.5q58 0 108 -7t93 -20.5t78 -34t64 -48.5q15 -15 15.5 -36t-14.5 -37q-15 -15 -36 -15.5t-36 14.5q-42 41 -109.5 61t-162.5 20q-92 0 -158 -18.5t-108 -57.5q-47 -42 -69.5 -112 t-22.5 -170t22.5 -170t69.5 -112q42 -39 108 -57.5t158 -18.5q95 0 162.5 20t109.5 61q15 15 36 14.5t36 -15.5q15 -16 14.5 -37t-15.5 -36q-29 -28 -64 -48.5t-78 -34t-93 -20.5t-108 -7q-56 0 -104.5 6.5t-90.5 19t-76.5 32t-63.5 45.5q-32 29 -55.5 65.5t-39 81t-23.5 97 t-8 114.5z" />
<glyph unicode="d" d="M102 768q0 -62 8 -114.5t23.5 -97t39 -81t55.5 -65.5q29 -26 63.5 -45.5t76.5 -32t90.5 -19t104.5 -6.5t105 6.5t90.5 19t76.5 32t63 45.5q7 6 12.5 11.5l11.5 11.5v-75q0 -21 15 -36t36 -15t36 15t15 36v1229q0 21 -15 36t-36 15t-36 -15t-15 -36v-484l-11.5 11.5 t-12.5 11.5q-28 26 -63 45.5t-76.5 32t-90.5 19t-105 6.5t-104.5 -6.5t-90.5 -19t-76.5 -32t-63.5 -45.5q-32 -29 -55.5 -65.5t-39 -81t-23.5 -97t-8 -114.5zM205 768q0 100 22.5 170t69.5 112q42 39 108 57.5t158 18.5t158 -18.5t109 -57.5q46 -42 69 -112t23 -170 t-23 -170t-69 -112q-43 -39 -109 -57.5t-158 -18.5t-158 18.5t-108 57.5q-47 42 -69.5 112t-22.5 170z" />
<glyph unicode="e" d="M102 768q0 62 8 114.5t23.5 97t39 81t55.5 65.5q29 26 63.5 45.5t76.5 32t90.5 19t104.5 6.5t105 -6.5t90.5 -19t76.5 -32t63 -45.5q32 -29 55.5 -65.5t39.5 -81t23.5 -97t7.5 -114.5q0 -21 -15 -36t-36 -15h-767q6 -80 28.5 -137.5t62.5 -93.5q42 -39 108 -57.5 t158 -18.5q98 0 166.5 21.5t110.5 64.5q15 16 36 16t37 -14q15 -15 15.5 -36t-14.5 -37q-29 -29 -64.5 -51.5t-79.5 -37t-95.5 -22t-111.5 -7.5q-56 0 -104.5 6.5t-90.5 19t-76.5 32t-63.5 45.5q-32 29 -55.5 65.5t-39 81t-23.5 97t-8 114.5zM206 819h714q-5 80 -27.5 137.5 t-62.5 93.5q-43 39 -109 57.5t-158 18.5t-158 -18.5t-108 -57.5q-40 -36 -62.5 -93.5t-28.5 -137.5z" />
<glyph unicode="f" horiz-adv-x="614" d="M102 358q0 -21 15 -36t37 -15q21 0 36 15t15 36v768h256q21 0 36 15t15 37q0 21 -15 36t-36 15h-256v102q0 53 9 92t26 64q24 33 58 41t60 8q28 0 50 -2.5t38 -7.5q20 -6 39 4t25 30q6 21 -4 39.5t-30 24.5q-24 7 -53 10.5t-65 3.5q-67 0 -118 -23t-83 -68 q-28 -39 -41.5 -92.5t-13.5 -123.5v-973z" />
<glyph unicode="g" d="M102 768q0 -62 8 -114.5t23.5 -97t39 -81t55.5 -65.5q29 -26 63.5 -45.5t76.5 -32t90.5 -19t104.5 -6.5t105 6.5t90.5 19t76.5 32t63 45.5q7 6 12.5 11.5l11.5 11.5v-75q0 -108 -18 -176.5t-57 -106.5q-39 -39 -107 -57t-177 -18q-101 0 -168 16t-106 49q-16 14 -37 12.5 t-35 -17.5t-12 -37.5t18 -34.5q27 -24 60.5 -41t75.5 -28t92.5 -16t111.5 -5q126 0 214 24.5t142.5 79.5t79.5 142.5t25 213.5v820q0 21 -15 36t-36 15t-36 -15t-15 -36v-75l-11.5 11.5t-12.5 11.5q-28 26 -63 45.5t-76.5 32t-90.5 19t-105 6.5t-104.5 -6.5t-90.5 -19 t-76.5 -32t-63.5 -45.5q-32 -29 -55.5 -65.5t-39 -81t-23.5 -97t-8 -114.5zM205 768q0 100 22.5 170t69.5 112q42 39 108 57.5t158 18.5t158 -18.5t109 -57.5q46 -42 69 -112t23 -170t-23 -170t-69 -112q-43 -39 -109 -57.5t-158 -18.5t-158 18.5t-108 57.5 q-47 42 -69.5 112t-22.5 170z" />
<glyph unicode="h" horiz-adv-x="1024" d="M102 358q0 -21 15 -36t37 -15q21 0 36 15t15 36v410q0 98 22 169t65 115q37 37 92.5 55.5t127.5 18.5t127.5 -18.5t92.5 -55.5q43 -44 65 -115t22 -169v-410q0 -21 15 -36t36 -15q22 0 37 15t15 36v410q0 59 -7.5 111.5t-22.5 97t-37 81.5t-51 66q-52 52 -125.5 78.5 t-166.5 26.5t-166.5 -26.5t-125.5 -78.5l-8 -8t-7 -8v479q0 21 -15 36t-36 15q-22 0 -37 -15t-15 -36v-1229z" />
<glyph unicode="i" horiz-adv-x="308" d="M102 358v820q0 21 15 36t37 15q21 0 36 -15t15 -36v-820q0 -21 -15 -36t-36 -15q-22 0 -37 15t-15 36zM102 1485v102q0 21 15 36t37 15q21 0 36 -15t15 -36v-102q0 -21 -15 -36t-36 -15q-22 0 -37 15t-15 36z" />
<glyph unicode="j" horiz-adv-x="512" d="M0 -53q-1 22 13 37.5t35 16.5q74 4 123.5 21.5t77.5 48.5q30 33 44 91t14 145v871q0 21 15 36t36 15q22 0 37 -15t15 -36v-871q0 -107 -20.5 -181.5t-63.5 -122.5t-109.5 -73.5t-162.5 -30.5h-1.5h-1.5q-20 0 -35 14t-16 34zM307 1485v102q0 21 15 36t36 15q22 0 37 -15 t15 -36v-102q0 -21 -15 -36t-37 -15q-21 0 -36 15t-15 36z" />
<glyph unicode="k" horiz-adv-x="820" d="M102 358q0 -21 15 -36t37 -15q21 0 36 15t15 36v389l424 -425q8 -7 17.5 -11t19.5 -4q9 0 18.5 4t17.5 11q15 15 15 36.5t-15 36.5l-374 373l374 373q15 15 15 36.5t-15 36.5t-36.5 15t-36.5 -15l-424 -425v798q0 21 -15 36t-36 15q-22 0 -37 -15t-15 -36v-1229z" />
<glyph unicode="l" horiz-adv-x="308" d="M102 461q0 -85 54 -119.5t100 -34.5v1h1q21 0 35.5 14.5t14.5 35.5t-14.5 36t-35.5 15h-1v1h1q-4 0 -13 1.5t-18 6.5q-8 4 -14.5 13t-6.5 30v1126q0 21 -15 36t-36 15q-22 0 -37 -15t-15 -36v-1126z" />
<glyph unicode="m" horiz-adv-x="1740" d="M102 358q0 -21 15 -36t37 -15q21 0 36 15t15 36v410q0 98 22 169t65 115q37 37 92.5 55.5t127.5 18.5t127.5 -18.5t92.5 -55.5q43 -44 65 -115t22 -169v-410q0 -21 15 -36t36 -15q22 0 37 15t15 36v410q0 98 22 169t65 115q37 37 92.5 55.5t127.5 18.5t127 -18.5 t93 -55.5q43 -44 65 -115t22 -169v-410q0 -21 15 -36t36 -15t36 15t15 36v410q0 59 -7 111.5t-22 97t-37 81.5t-51 66q-52 52 -125.5 78.5t-166.5 26.5q-94 0 -167 -26.5t-125 -78.5q-20 -20 -36.5 -43.5t-30.5 -50.5q-13 27 -29.5 50.5t-36.5 43.5q-52 52 -125.5 78.5 t-166.5 26.5t-166.5 -26.5t-125.5 -78.5l-8 -8t-7 -8v70q0 21 -15 36t-36 15q-22 0 -37 -15t-15 -36v-820z" />
<glyph unicode="n" horiz-adv-x="1024" d="M102 358q0 -21 15 -36t37 -15q21 0 36 15t15 36v410q0 98 22 169t65 115q37 37 92.5 55.5t127.5 18.5t127.5 -18.5t92.5 -55.5q43 -44 65 -115t22 -169v-410q0 -21 15 -36t36 -15q22 0 37 15t15 36v410q0 59 -7.5 111.5t-22.5 97t-37 81.5t-51 66q-52 52 -125.5 78.5 t-166.5 26.5t-166.5 -26.5t-125.5 -78.5l-8 -8t-7 -8v70q0 21 -15 36t-36 15q-22 0 -37 -15t-15 -36v-820z" />
<glyph unicode="o" d="M102 768q0 62 8 114.5t23.5 97t39 81t55.5 65.5q29 26 63.5 45.5t76.5 32t90.5 19t104.5 6.5t105 -6.5t90.5 -19t76.5 -32t63 -45.5q32 -29 55.5 -65.5t39.5 -81t23.5 -97t7.5 -114.5t-7.5 -114.5t-23.5 -97t-39.5 -81t-55.5 -65.5q-28 -26 -63 -45.5t-76.5 -32 t-90.5 -19t-105 -6.5t-104.5 6.5t-90.5 19t-76.5 32t-63.5 45.5q-32 29 -55.5 65.5t-39 81t-23.5 97t-8 114.5zM205 768q0 -100 22.5 -170t69.5 -112q42 -39 108 -57.5t158 -18.5t158 18.5t109 57.5q46 42 69 112t23 170t-23 170t-69 112q-43 39 -109 57.5t-158 18.5 t-158 -18.5t-108 -57.5q-47 -42 -69.5 -112t-22.5 -170z" />
<glyph unicode="p" d="M102 -51q0 -21 15 -36t37 -15q21 0 36 15t15 36v484q5 -6 11 -11.5t12 -11.5q29 -26 63.5 -45.5t76.5 -32t90.5 -19t104.5 -6.5t105 6.5t90.5 19t76.5 32t63 45.5q32 29 55.5 65.5t39.5 81t23.5 97t7.5 114.5t-7.5 114.5t-23.5 97t-39.5 81t-55.5 65.5q-28 26 -63 45.5 t-76.5 32t-90.5 19t-105 6.5t-104.5 -6.5t-90.5 -19t-76.5 -32t-63.5 -45.5q-6 -6 -12 -11.5t-11 -11.5v75q0 21 -15 36t-36 15q-22 0 -37 -15t-15 -36v-1229zM205 768q0 100 22.5 170t69.5 112q42 39 108 57.5t158 18.5t158 -18.5t109 -57.5q46 -42 69 -112t23 -170 t-23 -170t-69 -112q-43 -39 -109 -57.5t-158 -18.5t-158 18.5t-108 57.5q-47 42 -69.5 112t-22.5 170z" />
<glyph unicode="q" d="M102 768q0 -62 8 -114.5t23.5 -97t39 -81t55.5 -65.5q29 -26 63.5 -45.5t76.5 -32t90.5 -19t104.5 -6.5t105 6.5t90.5 19t76.5 32t63 45.5q7 6 12.5 11.5l11.5 11.5v-484q0 -21 15 -36t36 -15t36 15t15 36v1229q0 21 -15 36t-36 15t-36 -15t-15 -36v-75l-11.5 11.5 t-12.5 11.5q-28 26 -63 45.5t-76.5 32t-90.5 19t-105 6.5t-104.5 -6.5t-90.5 -19t-76.5 -32t-63.5 -45.5q-32 -29 -55.5 -65.5t-39 -81t-23.5 -97t-8 -114.5zM205 768q0 100 22.5 170t69.5 112q42 39 108 57.5t158 18.5t158 -18.5t109 -57.5q46 -42 69 -112t23 -170 t-23 -170t-69 -112q-43 -39 -109 -57.5t-158 -18.5t-158 18.5t-108 57.5q-47 42 -69.5 112t-22.5 170z" />
<glyph unicode="r" horiz-adv-x="614" d="M102 358q0 -21 15 -36t37 -15q21 0 36 15t15 36v410q0 90 18.5 158t55.5 112q32 38 78.5 59.5t108.5 26.5q21 2 34.5 18.5t11.5 37.5t-18.5 34.5t-37.5 11.5q-65 -6 -132 -32t-119 -86v70q0 21 -15 36t-36 15q-22 0 -37 -15t-15 -36v-820z" />
<glyph unicode="s" horiz-adv-x="922" d="M102 461q0 -11 4 -20t11 -16q2 -2 24.5 -20.5t65.5 -40.5t106.5 -39.5t147.5 -17.5q89 0 156 16.5t112 49t67.5 81t22.5 112.5q0 58 -31 103t-92 77q-48 24 -106 40.5t-117 31.5q-122 29 -195 60t-73 92q0 38 32 97t224 59q134 0 201 -42.5t70 -44.5q7 -7 16 -11t20 -4 q21 0 36 15t15 36q0 11 -4 20t-11 16q-2 2 -24.5 20.5t-65.5 40.5t-106 39.5t-147 17.5q-89 0 -156.5 -16.5t-112 -49t-67.5 -81t-23 -112.5q0 -58 31 -103t93 -77q47 -24 105.5 -40.5t117.5 -31.5q121 -29 194.5 -60t73.5 -92q0 -38 -32 -97t-224 -59q-134 0 -201.5 42.5 t-69.5 44.5q-7 7 -16.5 11t-19.5 4q-22 0 -37 -15t-15 -36z" />
<glyph unicode="t" horiz-adv-x="614" d="M102 614q0 -70 13.5 -123.5t41.5 -91.5q32 -46 83 -69t118 -23q36 0 65 3.5t53 10.5q20 7 30 25.5t4 38.5q-6 21 -25 31t-39 3q-16 -5 -38 -7t-50 -2q-26 0 -60 8t-58 41q-17 24 -26 63t-9 92v512h256q21 0 36 15t15 37q0 21 -15 36t-36 15h-256v358q0 21 -15 36t-36 15 q-22 0 -37 -15t-15 -36v-973z" />
<glyph unicode="u" horiz-adv-x="1024" d="M102 768q0 -59 7.5 -111.5t22.5 -97t37 -81.5t51 -66q52 -52 125.5 -78.5t166.5 -26.5t166.5 26.5t125.5 78.5l8 8t7 8v-70q0 -21 15 -36t36 -15q22 0 37 15t15 36v820q0 21 -15 36t-37 15q-21 0 -36 -15t-15 -36v-410q0 -98 -22 -169t-65 -115q-37 -37 -92.5 -55.5 t-127.5 -18.5t-127.5 18.5t-92.5 55.5q-43 44 -65 115t-22 169v410q0 21 -15 36t-36 15q-22 0 -37 -15t-15 -36v-410z" />
<glyph unicode="v" horiz-adv-x="922" d="M106 1160q-8 19 1 38.5t29 27.5q19 7 38.5 -2t27.5 -28l259 -692l259 692q8 19 27 28t39 2q20 -8 28.5 -27.5t1.5 -38.5l-307 -820q-6 -15 -19 -24t-29 -9t-29.5 9t-18.5 24z" />
<glyph unicode="w" horiz-adv-x="1536" d="M106 1160l307 -820q5 -15 18.5 -24t29.5 -9t29 9t19 24l259 692l259 -692q6 -15 19 -24t29 -9t29.5 9t18.5 24l307 820q8 19 -1 38.5t-29 27.5q-19 7 -38.5 -2t-27.5 -28l-259 -692l-259 692q-4 10 -11.5 17.5t-18.5 12.5q-20 7 -39 -2t-27 -28l-259 -692l-259 692 q-8 19 -27.5 28t-38.5 2q-20 -8 -29 -27.5t-1 -38.5z" />
<glyph unicode="x" horiz-adv-x="922" d="M103 351q3 -21 20 -34q7 -5 15 -7.5t16 -2.5q11 0 22 5.5t19 15.5l266 355l266 -355q8 -10 18.5 -15.5t22.5 -5.5q8 0 16 2.5t15 7.5q17 13 20 34t-10 38l-284 379l284 379q13 17 10 38t-20 34q-17 12 -38 9t-34 -20l-266 -355l-266 355q-13 17 -34 20t-38 -9 q-17 -13 -20 -34t10 -38l284 -379l-284 -379q-13 -17 -10 -38z" />
<glyph unicode="y" horiz-adv-x="922" d="M102 -51q0 -21 15 -36t37 -15q70 0 120 26.5t90 85.5q18 26 34 58.5t33.5 73.5t36.5 90t41 108l307 820q7 19 -1.5 38.5t-28.5 27.5q-20 7 -39 -2t-27 -28l-259 -692l-259 692q-8 19 -27.5 28t-38.5 2q-20 -8 -29 -27.5t-1 -38.5l300 -802q-41 -110 -70 -180 t-55.5 -109.5t-55.5 -54t-71 -14.5q-22 0 -37 -15t-15 -36z" />
<glyph unicode="z" horiz-adv-x="922" d="M102 1178q0 21 15 36t37 15h614q15 0 27 -7.5t19 -21.5q6 -13 5 -27t-10 -26l-553 -737h512q21 0 36 -15t15 -37q0 -21 -15 -36t-36 -15h-614q-15 0 -27.5 7.5t-18.5 21.5q-7 13 -5.5 27t10.5 26l553 737h-512q-22 0 -37 15t-15 37z" />
<glyph unicode="{" horiz-adv-x="716" d="M102 973q0 -21 15 -36t37 -15h51q42 0 72 -30t30 -73v-614q0 -43 16 -80t44 -65t65.5 -44t79.5 -16h51q21 0 36 15t15 36t-15 36t-36 15h-51q-42 0 -72 30t-30 73v614q0 46 -19 86t-51 68q32 28 51 68t19 85v512q0 43 30 73t72 30h51q21 0 36 15t15 36t-15 36t-36 15h-51 q-42 0 -79.5 -16t-65.5 -44t-44 -65t-16 -80v-512q0 -42 -30 -72t-72 -30h-51q-22 0 -37 -15t-15 -36z" />
<glyph unicode="|" horiz-adv-x="512" d="M205 51v1741q0 21 15 36t36 15t36 -15t15 -36v-1741q0 -21 -15 -36t-36 -15t-36 15t-15 36z" />
<glyph unicode="}" horiz-adv-x="716" d="M102 51q0 21 15 36t37 15h51q42 0 72 30t30 73v614q0 46 19 86t51 68q-32 28 -51 68t-19 85v512q0 43 -30 73t-72 30h-51q-22 0 -37 15t-15 36t15 36t37 15h51q42 0 79.5 -16t65 -44t44 -65t16.5 -80v-512q0 -42 30 -72t72 -30h51q21 0 36 -15t15 -36t-15 -36t-36 -15 h-51q-42 0 -72 -30t-30 -73v-614q0 -43 -16.5 -80t-44 -65t-65 -44t-79.5 -16h-51q-22 0 -37 15t-15 36z" />
<glyph unicode="~" d="M104 782q26 89 70.5 144t107.5 74q55 18 110.5 6.5t99.5 -32t72.5 -41.5t31.5 -23q25 -21 92 -55.5t127 -16.5q36 12 63.5 49t45.5 100q5 20 23.5 30.5t39.5 4.5q20 -6 30.5 -24.5t4.5 -38.5q-25 -90 -70 -144.5t-107 -74.5q-17 -5 -33.5 -7t-32.5 -2q-48 0 -91.5 15 t-78 33t-55.5 34t-24 18q-25 21 -92 55.5t-126 15.5q-37 -11 -64 -48t-45 -100q-5 -17 -19 -27t-30 -10q-4 0 -7.5 0.5t-6.5 1.5q-21 6 -31 24.5t-5 38.5z" />
<glyph unicode="&#xa0;" horiz-adv-x="819" d="M0 0z" />
<glyph unicode="&#xa9;" horiz-adv-x="1536" d="M102 973q0 82 11 154t32 134t52.5 114.5t73.5 94.5t94 73.5t114.5 52.5t134.5 31.5t154 10.5t154 -10.5t134.5 -31.5t114.5 -52.5t94 -73.5t73.5 -94.5t52.5 -114.5t32 -134t11 -154t-11 -154t-32 -134.5t-52.5 -114.5t-73.5 -94t-94 -73.5t-114.5 -53t-134.5 -32 t-154 -10.5t-154 10.5t-134.5 32t-114.5 53t-94 73.5t-73.5 94t-52.5 114.5t-32 134.5t-11 154zM205 973q0 -71 8.5 -133.5t26 -115.5t43.5 -97t60 -79q35 -34 79 -60t97 -43.5t115.5 -26t133.5 -8.5t133.5 8.5t115.5 26t97 43.5t79 60q34 35 60 79t43.5 97t26 115.5 t8.5 133.5t-8.5 133.5t-26 115.5t-43.5 97t-60 78q-35 35 -79 61t-97 43.5t-115.5 26t-133.5 8.5t-133.5 -8.5t-115.5 -26t-97 -43.5t-79 -61q-34 -34 -60 -78t-43.5 -97t-26 -115.5t-8.5 -133.5zM410 973q0 87 23 154t68 112q46 46 113 69t154 23q61 0 112.5 -7.5 t93.5 -22.5t75.5 -38t57.5 -53q14 -17 11.5 -38t-18.5 -34q-17 -14 -38 -11.5t-34 18.5q-34 42 -98.5 63t-161.5 21q-66 0 -114.5 -15.5t-79.5 -46.5t-46.5 -79.5t-15.5 -114.5t15.5 -115t46.5 -79q31 -31 79.5 -46.5t114.5 -15.5q97 0 161.5 20.5t98.5 62.5q13 17 34 19 t38 -11q16 -14 18.5 -35t-11.5 -37q-24 -31 -57.5 -53.5t-75.5 -38t-93.5 -23t-112.5 -7.5q-87 0 -154 23.5t-113 68.5q-45 46 -68 113t-23 154z" />
<glyph unicode="&#xad;" horiz-adv-x="716" d="M102 768q0 21 15 36t37 15h409q21 0 36 -15t15 -36t-15 -36t-36 -15h-409q-22 0 -37 15t-15 36z" />
<glyph unicode="&#x2000;" horiz-adv-x="973" />
<glyph unicode="&#x2001;" horiz-adv-x="1946" />
<glyph unicode="&#x2002;" horiz-adv-x="973" />
<glyph unicode="&#x2003;" horiz-adv-x="1946" />
<glyph unicode="&#x2004;" horiz-adv-x="648" />
<glyph unicode="&#x2005;" horiz-adv-x="486" />
<glyph unicode="&#x2006;" horiz-adv-x="324" />
<glyph unicode="&#x2007;" horiz-adv-x="324" />
<glyph unicode="&#x2008;" horiz-adv-x="243" />
<glyph unicode="&#x2009;" horiz-adv-x="389" />
<glyph unicode="&#x200a;" horiz-adv-x="108" />
<glyph unicode="&#x2010;" horiz-adv-x="716" d="M102 768q0 21 15 36t37 15h409q21 0 36 -15t15 -36t-15 -36t-36 -15h-409q-22 0 -37 15t-15 36z" />
<glyph unicode="&#x2011;" horiz-adv-x="716" d="M102 768q0 21 15 36t37 15h409q21 0 36 -15t15 -36t-15 -36t-36 -15h-409q-22 0 -37 15t-15 36z" />
<glyph unicode="&#x2012;" horiz-adv-x="716" d="M102 768q0 21 15 36t37 15h409q21 0 36 -15t15 -36t-15 -36t-36 -15h-409q-22 0 -37 15t-15 36z" />
<glyph unicode="&#x2013;" horiz-adv-x="1228" d="M102 768q0 21 30 36t74 15h818q42 0 72 -15t30 -36t-30 -36t-72 -15h-818q-44 0 -74 15t-30 36z" />
<glyph unicode="&#x2014;" horiz-adv-x="2252" d="M102 768q0 21 60 36t148 15h1636q84 0 144 -15t60 -36t-60 -36t-144 -15h-1636q-88 0 -148 15t-60 36z" />
<glyph unicode="&#x202f;" horiz-adv-x="389" />
<glyph unicode="&#x205f;" horiz-adv-x="486" />
<glyph unicode="&#x25fc;" horiz-adv-x="1230" d="M0 0v1230h1230v-1230h-1230z" />
</font>
</defs>
</svg>
