<?xml version="1.0" standalone="no"?>
<!DOCTYPE svg PUBLIC "-//W3C//DTD SVG 20010904//EN"
 "http://www.w3.org/TR/2001/REC-SVG-20010904/DTD/svg10.dtd">
<svg version="1.0" xmlns="http://www.w3.org/2000/svg"
 width="2150.000000pt" height="2150.000000pt" viewBox="0 0 2150.000000 2150.000000"
 preserveAspectRatio="xMidYMid meet">
<metadata>
Created by potrace 1.14, written by Peter Selinger 2001-2017
</metadata>
<g transform="translate(0.000000,2150.000000) scale(0.100000,-0.100000)"
fill="#000000" stroke="none">
<path d="M3757 18154 c-1 -1 -37 -5 -79 -8 -42 -4 -87 -9 -100 -12 -13 -2 -40
-6 -60 -9 -31 -4 -80 -15 -268 -60 -13 -3 -118 -37 -160 -51 -8 -3 -16 -5 -17
-5 -2 0 -27 -11 -58 -24 -30 -14 -55 -22 -55 -18 0 3 -9 -2 -21 -13 -12 -10
-24 -18 -28 -17 -10 3 -144 -64 -246 -122 -89 -52 -183 -115 -282 -190 -142
-108 -383 -346 -383 -379 0 -5 -3 -6 -6 -3 -4 4 -27 -21 -50 -55 -24 -34 -47
-64 -52 -67 -7 -6 -63 -88 -127 -191 -51 -81 -186 -356 -186 -377 0 -2 -7 -20
-16 -40 -20 -47 -82 -247 -89 -287 -3 -16 -7 -32 -9 -36 -2 -4 -7 -21 -10 -38
-3 -18 -8 -47 -11 -64 -9 -46 -12 -65 -19 -128 -4 -30 -9 -66 -12 -80 -4 -14
-7 -792 -8 -1730 -2 -938 -5 -1735 -8 -1772 -12 -136 -71 -301 -148 -415 -50
-75 -188 -204 -265 -249 -93 -55 -206 -100 -274 -110 -8 -1 -35 -6 -60 -10
-25 -4 -170 -7 -322 -8 -183 0 -279 -4 -281 -11 -2 -5 -3 -381 -3 -835 l1
-825 285 -1 c266 -2 305 -4 385 -19 87 -17 201 -65 290 -123 59 -38 197 -166
230 -214 90 -130 144 -273 161 -426 3 -34 7 -833 9 -1775 1 -941 5 -1725 7
-1742 3 -16 9 -55 13 -85 4 -30 9 -64 11 -75 3 -11 7 -36 10 -55 21 -131 96
-373 168 -542 9 -21 16 -41 15 -44 0 -4 3 -10 8 -13 4 -3 20 -31 35 -61 62
-125 172 -303 242 -391 12 -14 35 -43 51 -64 101 -131 295 -319 440 -427 6 -4
24 -18 40 -31 53 -41 217 -143 305 -190 163 -87 439 -193 576 -221 11 -3 39
-9 64 -15 25 -5 59 -12 75 -15 17 -3 41 -8 55 -11 126 -26 419 -42 421 -22 1
6 2 382 3 834 1 725 -1 823 -14 824 -92 6 -166 15 -178 23 -5 3 -24 8 -42 11
-53 9 -171 62 -241 107 -70 45 -239 210 -239 233 0 8 -4 15 -8 15 -24 0 -110
201 -134 314 -8 36 -12 559 -13 1761 -1 941 -5 1737 -9 1770 -13 126 -22 193
-30 231 -2 12 -7 39 -10 60 -4 22 -9 47 -12 56 -3 9 -6 25 -8 35 -15 72 -72
261 -101 328 -7 17 -18 46 -26 65 -68 185 -289 543 -422 684 -20 21 -37 40
-37 42 0 4 21 31 66 83 144 170 301 427 384 631 12 30 28 69 35 85 11 25 25
65 30 85 1 3 4 12 8 20 12 31 46 146 51 170 3 14 7 34 10 45 18 76 36 169 41
220 4 33 9 68 11 78 14 76 17 401 19 1887 1 1370 4 1704 14 1740 8 25 14 52
15 60 2 8 6 24 10 35 4 11 15 38 23 60 20 54 76 155 103 183 11 12 18 22 15
22 -4 0 17 25 47 56 56 60 160 144 176 144 6 0 12 4 14 9 7 19 175 91 248 105
14 3 39 8 55 11 31 7 82 12 125 14 l25 1 0 832 -1 833 -92 0 c-51 1 -94 0 -95
-1z"/>
<path d="M17555 17325 c0 -459 2 -835 5 -836 3 0 30 -2 60 -4 60 -3 227 -40
244 -54 6 -4 22 -11 36 -14 25 -6 141 -73 183 -105 45 -35 187 -184 187 -196
0 -7 9 -21 20 -31 11 -10 17 -22 14 -26 -3 -5 -2 -9 3 -9 12 0 78 -148 87
-193 2 -12 10 -44 17 -72 10 -39 13 -432 15 -1770 1 -946 4 -1745 8 -1775 10
-96 16 -143 31 -225 21 -120 24 -133 51 -230 14 -49 26 -97 28 -105 2 -8 15
-42 27 -75 13 -33 24 -62 24 -65 7 -26 77 -180 113 -250 95 -180 231 -381 332
-490 45 -49 46 -44 -22 -127 -34 -43 -66 -80 -69 -83 -31 -26 -218 -326 -262
-421 -73 -157 -141 -329 -153 -388 -3 -14 -7 -28 -10 -33 -6 -9 -4 -4 -38
-158 -33 -151 -38 -182 -52 -335 -4 -38 -8 -837 -9 -1775 -2 -938 -5 -1720 -8
-1738 -17 -95 -73 -245 -119 -317 -62 -97 -171 -207 -267 -272 -60 -40 -182
-97 -231 -107 -50 -10 -72 -15 -89 -21 -10 -3 -45 -7 -79 -9 -33 -2 -64 -6
-69 -9 -4 -3 -8 -378 -8 -834 l1 -828 94 1 c183 2 309 19 520 71 80 19 149 38
155 41 5 4 17 7 25 9 8 1 47 14 85 29 102 39 118 45 135 55 8 5 22 12 30 15
79 28 390 205 398 226 2 4 8 8 13 8 5 0 17 6 26 14 10 8 63 51 118 95 274 219
492 486 664 814 124 237 231 581 256 823 3 28 8 62 12 75 4 13 8 800 9 1749 1
949 5 1749 8 1778 9 86 39 187 79 272 16 34 89 152 102 166 6 7 22 25 36 40
76 90 258 213 354 239 17 5 32 9 35 10 115 35 148 37 465 39 l280 1 0 835 0
835 -295 1 c-188 1 -314 5 -345 13 -28 6 -59 13 -70 15 -54 10 -188 71 -256
116 -213 141 -356 373 -385 623 -3 26 -7 823 -8 1770 -2 947 -6 1738 -9 1757
-4 19 -9 55 -12 80 -4 37 -11 76 -20 120 -1 3 -5 25 -9 50 -26 154 -116 421
-199 590 -56 115 -191 345 -217 370 -3 3 -24 31 -48 63 -117 157 -352 396
-453 460 -16 11 -29 23 -29 28 0 5 -6 9 -13 9 -7 0 -27 14 -45 30 -18 17 -35
30 -37 30 -2 0 -42 24 -87 54 -169 109 -479 254 -603 280 -5 2 -41 12 -80 24
-38 11 -81 23 -95 26 -14 2 -50 10 -80 16 -150 29 -221 38 -395 45 l-110 4 0
-834z"/>
<path d="M4557 14963 c-2 -5 -3 -386 -3 -848 l1 -840 1855 -1 c1020 -1 1860
-2 1865 -3 7 -1 10 -287 10 -838 l-1 -838 -1862 -3 c-1024 -1 -1863 -5 -1863
-10 -1 -4 -3 -1140 -3 -2524 -2 -2264 0 -2518 14 -2522 8 -2 849 -3 1868 -2
l1852 1 844 844 844 843 0 851 -1 851 -258 256 c-142 140 -330 326 -418 413
l-159 157 98 98 c55 53 242 238 417 410 l318 313 1 854 2 853 -846 845 -845
846 -1863 1 c-1025 0 -1865 -3 -1867 -7z m3725 -5065 c3 -11 2 -1652 -1 -1668
-1 -3 -467 -5 -1036 -6 l-1035 0 0 843 0 843 1034 0 c818 0 1035 -3 1038 -12z"/>
<path d="M11527 14962 c-2 -4 -3 -385 -3 -847 l1 -840 1863 0 1862 0 0 -80 c1
-102 1 -4783 0 -4890 l0 -81 -1029 1 c-566 0 -1033 3 -1036 7 -4 4 -7 761 -7
1683 l0 1675 -827 -2 -826 -3 0 -2525 0 -2525 1865 0 1865 -1 733 731 c403
401 783 781 845 843 l113 112 -1 2529 0 2530 -845 845 -845 845 -1862 0
c-1024 0 -1864 -3 -1866 -7z"/>
</g>
</svg>
